<?xml version="1.0" encoding="UTF-8" standalone="no"?>
<!-- Created with Inkscape (http://www.inkscape.org/) -->

<svg
   xmlns:dc="http://purl.org/dc/elements/1.1/"
   xmlns:cc="http://creativecommons.org/ns#"
   xmlns:rdf="http://www.w3.org/1999/02/22-rdf-syntax-ns#"
   xmlns:svg="http://www.w3.org/2000/svg"
   xmlns="http://www.w3.org/2000/svg"
   xmlns:xlink="http://www.w3.org/1999/xlink"
   xmlns:sodipodi="http://sodipodi.sourceforge.net/DTD/sodipodi-0.dtd"
   xmlns:inkscape="http://www.inkscape.org/namespaces/inkscape"
   width="44.55418"
   height="60.540459"
   id="svg5611"
   version="1.1"
   inkscape:version="0.48.5 r10040"
   sodipodi:docname="enter.svg">
  <defs
     id="defs5613">
    <linearGradient
       id="linearGradient3916">
      <stop
         style="stop-color:#484848;stop-opacity:1;"
         offset="0"
         id="stop3918" />
      <stop
         style="stop-color:#828282;stop-opacity:1;"
         offset="1"
         id="stop3920" />
    </linearGradient>
    <linearGradient
       id="linearGradient3908">
      <stop
         style="stop-color:#333333;stop-opacity:1;"
         offset="0"
         id="stop3910" />
      <stop
         style="stop-color:#4d4d4d;stop-opacity:1;"
         offset="1"
         id="stop3912" />
    </linearGradient>
    <linearGradient
       inkscape:collect="always"
       xlink:href="#linearGradient3916"
       id="linearGradient3922"
       x1="180.13028"
       y1="143.77579"
       x2="176.89931"
       y2="141.3009"
       gradientUnits="userSpaceOnUse" />
    <linearGradient
       inkscape:collect="always"
       xlink:href="#linearGradient3916"
       id="linearGradient4094"
       gradientUnits="userSpaceOnUse"
       x1="180.13028"
       y1="143.77579"
       x2="176.89931"
       y2="141.3009"
       gradientTransform="matrix(0.95845844,0,0,0.95896767,6.1904225,7.8258363)" />
  </defs>
  <sodipodi:namedview
     id="base"
     pagecolor="#ffffff"
     bordercolor="#666666"
     borderopacity="1.0"
     inkscape:pageopacity="0.0"
     inkscape:pageshadow="2"
     inkscape:zoom="1"
     inkscape:cx="15.643477"
     inkscape:cy="31.771558"
     inkscape:document-units="px"
     inkscape:current-layer="layer1"
     showgrid="false"
     fit-margin-top="0"
     fit-margin-left="0"
     fit-margin-right="0"
     fit-margin-bottom="0"
     inkscape:window-width="1366"
     inkscape:window-height="715"
     inkscape:window-x="0"
     inkscape:window-y="0"
     inkscape:window-maximized="1" />
  <metadata
     id="metadata5616">
    <rdf:RDF>
      <cc:Work
         rdf:about="">
        <dc:format>image/svg+xml</dc:format>
        <dc:type
           rdf:resource="http://purl.org/dc/dcmitype/StillImage" />
        <dc:title />
      </cc:Work>
    </rdf:RDF>
  </metadata>
  <g
     inkscape:label="Layer 1"
     inkscape:groupmode="layer"
     id="layer1"
     transform="translate(-148.01758,-131.18322)"
     style="display:inline">
    <path
       sodipodi:nodetypes="sssscsssscsscs"
       inkscape:connector-curvature="0"
       id="path3138"
       d="m 155.33947,132.18322 c -3.50234,0 -6.32189,3.10129 -6.32189,6.95358 l 0,19.09711 c 0,3.85228 2.81955,6.95357 6.32189,6.95357 l 8.27224,0 0,18.58263 c 0,3.85228 2.81954,6.95357 6.32189,6.95357 l 15.31626,0 c 3.50233,0 6.3219,-3.10129 6.3219,-6.95357 l 0,-29.24851 0,-15.3848 c 0,-3.85229 -2.81957,-6.95358 -6.3219,-6.95358 l -13.98715,0 z"
       style="fill:url(#linearGradient3922);fill-opacity:1;stroke:#ffff00;stroke-width:1.99999964;stroke-miterlimit:4;stroke-dasharray:none" />
    <path
       style="fill:#e6e6e6;stroke:none"
       d="m 157.9365,135.71876 c -2.89415,0 -5.22407,2.72669 -5.22407,6.11366 l 0,13.52648 c 0,3.38697 2.32992,6.11365 5.22407,6.11365 l 9.31906,0 0,19.60195 c 0,3.38697 2.32992,6.11365 5.22407,6.11365 l 10.17321,0 c 2.89413,0 5.22407,-2.72668 5.22407,-6.11365 l 0,-25.7156 0,-13.52648 c 0,-3.38697 -2.32994,-6.11366 -5.22407,-6.11366 l -11.55824,0 z"
       id="rect6089"
       inkscape:connector-curvature="0"
       sodipodi:nodetypes="sssscsssscsscs" />
    <g
       id="g6874"
       transform="matrix(1.8149335,0,0,1.7915633,-122.74758,-142.36546)"
       style="fill:#000000">
      <path
         sodipodi:nodetypes="ccc"
         inkscape:connector-curvature="0"
         id="path6098"
         d="m 160.14434,165.66696 6.24769,0 0,-2.86096"
         style="fill:none;stroke:#000000;stroke-width:1.10913277;stroke-miterlimit:4;stroke-dasharray:none" />
      <path
         inkscape:transform-center-x="0.48437564"
         transform="matrix(0,-0.24390491,0.24390491,0,118.70556,212.63577)"
         d="m 199.57392,172.15 -13.75874,0 6.87937,-11.91542 z"
         inkscape:randomized="0"
         inkscape:rounded="0"
         inkscape:flatsided="true"
         sodipodi:arg2="1.5707963"
         sodipodi:arg1="0.52359878"
         sodipodi:r2="3.9718075"
         sodipodi:r1="7.943615"
         sodipodi:cy="168.17819"
         sodipodi:cx="192.69455"
         sodipodi:sides="3"
         id="path6100"
         style="fill:#000000;stroke:none"
         sodipodi:type="star" />
      <text
         xml:space="preserve"
         style="font-size:5.46981287px;font-style:normal;font-variant:normal;font-weight:bold;font-stretch:normal;text-align:start;text-anchor:start;fill:#000000;fill-opacity:1;stroke:none;font-family:Monospace;-inkscape-font-specification:Monospace Bold"
         x="154.39212"
         y="160.51688"
         id="text3104"
         transform="scale(0.9935408,1.0065012)"><tspan
           sodipodi:role="line"
           id="tspan3106"
           x="154.39212"
           y="160.51688">enter</tspan></text>
    </g>
  </g>
  <g
     style="display:inline"
     transform="translate(-148.01758,-131.18322)"
     id="g4076"
     inkscape:groupmode="layer"
     inkscape:label="pressed">
    <path
       style="fill:url(#linearGradient4094);fill-opacity:1;stroke:#b3b31e;stroke-width:1.99999964;stroke-miterlimit:4;stroke-opacity:1;stroke-dasharray:none"
       d="m 155.07685,134.58527 c -3.35685,0 -6.05927,2.97404 -6.05927,6.66826 l 0,18.31351 c 0,3.69421 2.70242,6.66825 6.05927,6.66825 l 7.9286,0 0,17.82014 c 0,3.69421 2.70241,6.66825 6.05927,6.66825 l 14.67999,0 c 3.35684,0 6.05928,-2.97404 6.05928,-6.66825 l 0,-28.04837 0,-14.75353 c 0,-3.69422 -2.70244,-6.66826 -6.05928,-6.66826 l -13.4061,0 z"
       id="path4080"
       inkscape:connector-curvature="0"
       sodipodi:nodetypes="sssscsssscsscs" />
    <path
       sodipodi:nodetypes="sssscsssscsscs"
       inkscape:connector-curvature="0"
       id="path4082"
       d="m 156.34551,137.13297 c -2.89415,0 -5.22407,2.72669 -5.22407,6.11366 l 0,13.52648 c 0,3.38697 2.32992,6.11365 5.22407,6.11365 l 9.31906,0 0,19.60195 c 0,3.38697 2.32992,6.11365 5.22407,6.11365 l 10.17321,0 c 2.89413,0 5.22407,-2.72668 5.22407,-6.11365 l 0,-25.7156 0,-13.52648 c 0,-3.38697 -2.32994,-6.11366 -5.22407,-6.11366 l -11.55824,0 z"
       style="fill:#cccccc;stroke:none" />
    <g
       style="fill:#000000"
       transform="matrix(1.8149335,0,0,1.7915633,-124.33857,-140.95125)"
       id="g4084">
      <path
         style="fill:none;stroke:#000000;stroke-width:1.10913277;stroke-miterlimit:4;stroke-dasharray:none"
         d="m 160.14434,165.66696 6.24769,0 0,-2.86096"
         id="path4086"
         inkscape:connector-curvature="0"
         sodipodi:nodetypes="ccc" />
      <path
         sodipodi:type="star"
         style="fill:#000000;stroke:none"
         id="path4088"
         sodipodi:sides="3"
         sodipodi:cx="192.69455"
         sodipodi:cy="168.17819"
         sodipodi:r1="7.943615"
         sodipodi:r2="3.9718075"
         sodipodi:arg1="0.52359878"
         sodipodi:arg2="1.5707963"
         inkscape:flatsided="true"
         inkscape:rounded="0"
         inkscape:randomized="0"
         d="m 199.57392,172.15 -13.75874,0 6.87937,-11.91542 z"
         transform="matrix(0,-0.24390491,0.24390491,0,118.70556,212.63577)"
         inkscape:transform-center-x="0.48437564" />
      <text
         transform="scale(0.9935408,1.0065012)"
         id="text4090"
         y="160.51688"
         x="154.39212"
         style="font-size:5.46981287px;font-style:normal;font-variant:normal;font-weight:bold;font-stretch:normal;text-align:start;text-anchor:start;fill:#000000;fill-opacity:1;stroke:none;font-family:Monospace;-inkscape-font-specification:Monospace Bold"
         xml:space="preserve"><tspan
           y="160.51688"
           x="154.39212"
           id="tspan4092"
           sodipodi:role="line">enter</tspan></text>
    </g>
  </g>
</svg>
