<?xml version="1.0" encoding="UTF-8" standalone="no"?>
<!-- Created with Inkscape (http://www.inkscape.org/) -->

<svg
   xmlns:dc="http://purl.org/dc/elements/1.1/"
   xmlns:cc="http://creativecommons.org/ns#"
   xmlns:rdf="http://www.w3.org/1999/02/22-rdf-syntax-ns#"
   xmlns:svg="http://www.w3.org/2000/svg"
   xmlns="http://www.w3.org/2000/svg"
   xmlns:sodipodi="http://sodipodi.sourceforge.net/DTD/sodipodi-0.dtd"
   xmlns:inkscape="http://www.inkscape.org/namespaces/inkscape"
   width="4800"
   height="140"
   id="svg2"
   version="1.1"
   inkscape:version="0.48.5 r10040"
   sodipodi:docname="mountains.svg"
   inkscape:export-filename="/home/vg/Project/boa/tarjeta/sauce/assets/mountains.png"
   inkscape:export-xdpi="90.055107"
   inkscape:export-ydpi="90.055107">
  <defs
     id="defs4" />
  <sodipodi:namedview
     id="base"
     pagecolor="#ffffff"
     bordercolor="#666666"
     borderopacity="1.0"
     inkscape:pageopacity="0.0"
     inkscape:pageshadow="2"
     inkscape:zoom="0.088388348"
     inkscape:cx="3713.9899"
     inkscape:cy="1481.8746"
     inkscape:document-units="px"
     inkscape:current-layer="layer1"
     showgrid="false"
     inkscape:window-width="1366"
     inkscape:window-height="715"
     inkscape:window-x="0"
     inkscape:window-y="0"
     inkscape:window-maximized="1" />
  <metadata
     id="metadata7">
    <rdf:RDF>
      <cc:Work
         rdf:about="">
        <dc:format>image/svg+xml</dc:format>
        <dc:type
           rdf:resource="http://purl.org/dc/dcmitype/StillImage" />
        <dc:title></dc:title>
      </cc:Work>
    </rdf:RDF>
  </metadata>
  <g
     inkscape:label="Layer 1"
     inkscape:groupmode="layer"
     id="layer1"
     transform="translate(0,-912.36217)">
    <path
       style="fill:#999999;fill-opacity:1;stroke:none"
       d="m 4018.1875,744.01117 c -102.884,0.66201 -177.2947,170.23188 -217.9375,294.06253 l -83.6875,-84.71878 c 0,0 -76.3758,98.99998 -214.9687,98.99998 -138.593,0 -254.5439,-130.09373 -429.9063,-130.09373 -175.3625,0 -189.5075,79.18753 -265.875,79.18753 -76.3675,0 -70.7281,-53.74883 -130.125,-65.06253 -59.397,-11.3137 -107.4687,113.15623 -107.4687,113.15623 l -42.4376,-98.99998 -96.1562,56.56248 -48.0938,-70.71873 -84.8437,36.78125 -62.2187,-22.625 -87.6876,124.43748 2.8126,-149.90623 -53.7188,99.00003 -31.125,-65.06253 -28.2812,62.25003 -36.7813,-99.00003 -84.8437,62.21875 -24.1563,61.84378 -91.8125,-92.96878 c 0,0 -76.3758,98.99998 -214.9688,98.99998 -138.5928,0 -254.5438,-130.09373 -429.9062,-130.09373 -175.36252,0 -189.50747,79.18753 -265.875,79.18753 -76.36754,0 -70.69678,-53.74882 -130.09375,-65.06253 -59.39697,-11.31371 -107.5,113.15623 -107.5,113.15623 L 608.125,950.54242 511.9375,1007.1049 463.875,936.38617 379,973.16742 l -62.21875,-22.625 -87.6875,124.43748 2.84375,-149.90623 -53.75,99.00003 -31.09375,-65.06253 -28.3125,62.25003 -36.75,-99.00003 -84.875,62.21875 -70.6875,181.03128 2101.50005,19.7812 -18,-18.2187 1935.6874,18.2187 -26.125,-26.4687 1027.375,-44.25 c 0,0 -124.4338,-169.70467 -158.375,-155.56253 -33.941,14.14214 -31.1183,-31.10968 -93.3437,-28.28125 -62.2254,2.82843 -65.0547,50.92339 -138.5937,36.78125 -73.5392,-14.14214 -57.7888,-43.39031 -90.5,-39.59375 -28.0957,3.26085 -40.4895,43.83334 -67.875,50.90625 -33.1782,8.56897 -70.5204,-28.05118 -101.8438,-14.15625 -49.0027,21.73741 -90.5,132.93748 -90.5,132.93748 0,0 -51.0899,-348.96543 -183.8438,-353.53123 -1.2852,-0.0442 -2.5672,-0.0707 -3.8437,-0.0625 z"
       id="path4318"
       inkscape:connector-curvature="0" />
  </g>
</svg>
