<?xml version="1.0" encoding="UTF-8" standalone="no"?>
<!-- Created with Inkscape (http://www.inkscape.org/) -->

<svg
   xmlns:dc="http://purl.org/dc/elements/1.1/"
   xmlns:cc="http://creativecommons.org/ns#"
   xmlns:rdf="http://www.w3.org/1999/02/22-rdf-syntax-ns#"
   xmlns:svg="http://www.w3.org/2000/svg"
   xmlns="http://www.w3.org/2000/svg"
   xmlns:sodipodi="http://sodipodi.sourceforge.net/DTD/sodipodi-0.dtd"
   xmlns:inkscape="http://www.inkscape.org/namespaces/inkscape"
   width="40"
   height="60"
   id="svg4575"
   version="1.1"
   inkscape:version="0.48.5 r10040"
   sodipodi:docname="New document 28">
  <defs
     id="defs4577" />
  <sodipodi:namedview
     id="base"
     pagecolor="#ffffff"
     bordercolor="#666666"
     borderopacity="1.0"
     inkscape:pageopacity="0.0"
     inkscape:pageshadow="2"
     inkscape:zoom="1"
     inkscape:cx="21.788502"
     inkscape:cy="22.21802"
     inkscape:document-units="px"
     inkscape:current-layer="layer1"
     showgrid="false"
     inkscape:window-width="1366"
     inkscape:window-height="715"
     inkscape:window-x="0"
     inkscape:window-y="0"
     inkscape:window-maximized="1" />
  <metadata
     id="metadata4580">
    <rdf:RDF>
      <cc:Work
         rdf:about="">
        <dc:format>image/svg+xml</dc:format>
        <dc:type
           rdf:resource="http://purl.org/dc/dcmitype/StillImage" />
        <dc:title></dc:title>
      </cc:Work>
    </rdf:RDF>
  </metadata>
  <g
     inkscape:label="Layer 1"
     inkscape:groupmode="layer"
     id="layer1"
     transform="translate(0,-992.36218)"
     sodipodi:insensitive="true">
    <path
       sodipodi:type="arc"
       style="opacity:0.4;fill:#808080;fill-opacity:1;stroke:none"
       id="path5193"
       sodipodi:cx="20.152544"
       sodipodi:cy="53.812817"
       sodipodi:rx="12.727922"
       sodipodi:ry="2.6516504"
       d="m 32.880466,53.812817 a 12.727922,2.6516504 0 1 1 -25.4558444,0 12.727922,2.6516504 0 1 1 25.4558444,0 z"
       transform="translate(0,992.36218)" />
    <path
       sodipodi:nodetypes="cccc"
       inkscape:connector-curvature="0"
       style="fill:#ffffff;stroke:#1a1a1a;stroke-width:0.99999994"
       d="m 24.657063,1015.8735 c 4.981326,1.1179 9.05238,15.6148 6.5733,16.8804 -1.292405,-0.043 -7.286215,-11.8554 -9.238589,-14.6062 -0.136787,-0.9798 -2.342419,-3.1144 2.665289,-2.2742 z"
       id="path5182" />
    <path
       style="fill:#ffffff;stroke:#1a1a1a;stroke-width:0.99999994"
       d="m 21.386882,1028.8581 0,3.1642 -3.156882,0 c 0.486937,0.109 0.997867,0.1695 1.522068,0.1695 1.39725,0 4.096637,14.6327 5.496357,13.8716 1.136678,-0.618 1.228447,-13.8697 1.74756,-17.2053 l -5.609103,0 z"
       id="path5170"
       inkscape:connector-curvature="0" />
    <path
       style="fill:#ffffff;stroke:#1a1a1a;stroke-width:0.99999994"
       d="m 27.830785,1025.2453 c 0,4.5208 -2.822824,6.9534 -6.304954,6.9534 -1.397251,0 -4.111894,14.6383 -5.511614,13.8772 -1.249225,-0.6792 -1.221671,-16.6828 -1.903963,-17.9348 -0.458423,-0.8411 -0.728323,-1.808 -0.728323,-2.8958 0,-1.3133 0.307683,-3.2914 0.854546,-5.1735 0.618004,-2.127 1.541463,-4.1312 2.671513,-4.9145 1.312294,-0.9097 2.903185,-1.4422 4.617841,-1.4422 1.795232,0 3.454792,0.5838 4.800982,1.5729 2.026538,1.489 1.503972,7.241 1.503972,9.9573 z"
       id="path5167"
       inkscape:connector-curvature="0"
       sodipodi:nodetypes="ssssssssss" />
    <path
       id="path5180"
       d="m 16.873808,1015.7605 c -4.981326,1.1179 -9.0523785,15.6148 -6.573299,16.8804 1.292404,-0.043 7.286214,-11.8554 9.238588,-14.6062 0.136787,-0.9798 2.34242,-3.1144 -2.665289,-2.2742 z"
       style="fill:#ffffff;stroke:#1a1a1a;stroke-width:0.99999994"
       inkscape:connector-curvature="0"
       sodipodi:nodetypes="cccc" />
    <path
       sodipodi:type="arc"
       style="fill:#ffffff;fill-opacity:1;stroke:none"
       id="path5188"
       sodipodi:cx="19"
       sodipodi:cy="29.375"
       sodipodi:rx="3.5"
       sodipodi:ry="3.5"
       d="m 22.5,29.375 a 3.5,3.5 0 1 1 -7,0 3.5,3.5 0 1 1 7,0 z"
       transform="matrix(1.0791383,0,0,0.98477991,-1.3152877,989.13789)" />
    <path
       sodipodi:type="arc"
       style="fill:#ffffff;stroke:#1a1a1a;stroke-width:1.10740411"
       id="path5165"
       sodipodi:cx="21.5"
       sodipodi:cy="13.5"
       sodipodi:rx="11.625"
       sodipodi:ry="11.625"
       d="m 33.125,13.5 a 11.625,11.625 0 1 1 -23.25,0 11.625,11.625 0 1 1 23.25,0 z"
       transform="matrix(0.9019663,0,0,0.90406026,2.4455896,992.46959)" />
    <path
       sodipodi:type="arc"
       style="fill:#ffffff;fill-opacity:1;stroke:#1a1a1a;stroke-width:1.10740411;stroke-linecap:round;stroke-linejoin:round;stroke-miterlimit:4;stroke-opacity:1;stroke-dasharray:none"
       id="path5184"
       sodipodi:cx="22.75"
       sodipodi:cy="15.875"
       sodipodi:rx="2.25"
       sodipodi:ry="2.25"
       d="m 25,15.875 a 2.25,2.25 0 1 1 -4.5,0 2.25,2.25 0 1 1 4.5,0 z"
       transform="matrix(0.9019663,0,0,0.90406026,3.0093186,992.46959)" />
    <path
       style="fill:#ffffff;fill-opacity:1;stroke:#1a1a1a;stroke-width:0.99999994;stroke-linecap:round;stroke-linejoin:round;stroke-miterlimit:4;stroke-opacity:1;stroke-dasharray:none"
       d="m 31.421257,1004.7875 c -1.12082,0 -2.029424,0.9106 -2.029424,2.0341 0,1.1234 0.908604,2.0341 2.029424,2.0341 0.0186,0 0.03789,5e-4 0.05637,0 0.509996,-1.1802 0.773991,-2.4847 0.817407,-3.8422 -0.267654,-0.1304 -0.556214,-0.226 -0.87378,-0.226 z"
       id="path5186"
       inkscape:connector-curvature="0" />
  </g>
  <g
     inkscape:groupmode="layer"
     id="layer9"
     inkscape:label="onion"
     sodipodi:insensitive="true">
    <rect
       style="opacity:0.4;fill:#ffffff;fill-opacity:1;stroke:none"
       id="rect5258"
       width="91"
       height="91"
       x="-27.25"
       y="-11.25" />
  </g>
  <g
     inkscape:groupmode="layer"
     id="layer8"
     inkscape:label="walk0">
    <path
       sodipodi:type="arc"
       style="opacity:0.4;fill:#808080;fill-opacity:1;stroke:none;display:inline"
       id="path5193-1"
       sodipodi:cx="20.152544"
       sodipodi:cy="53.812817"
       sodipodi:rx="12.727922"
       sodipodi:ry="2.6516504"
       d="m 32.880466,53.812817 a 12.727922,2.6516504 0 1 1 -25.4558444,0 12.727922,2.6516504 0 1 1 25.4558444,0 z" />
    <path
       sodipodi:nodetypes="cccc"
       inkscape:connector-curvature="0"
       style="fill:#ffffff;stroke:#1a1a1a;stroke-width:0.99999994;display:inline"
       d="m 20.409463,22.21291 c 4.817375,-1.689999 15.948603,8.450477 14.516084,10.836967 -1.119023,0.648059 -12.459383,-6.197024 -15.572358,-7.496304 -0.634954,-0.758582 -3.636387,-1.401035 1.056274,-3.340663 z"
       id="path5182-1"
       inkscape:transform-center-x="-10.502833"
       inkscape:transform-center-y="-26.683892" />
    <path
       style="fill:#ffffff;stroke:#1a1a1a;stroke-width:0.99999994;display:inline"
       d="m 18.949073,36.834359 1.975977,2.471373 -2.465657,1.971406 c 0.448387,-0.218949 0.885225,-0.49076 1.294648,-0.818113 1.09131,-0.872554 12.337458,8.870484 12.955406,7.401937 0.501864,-1.192515 -7.701868,-11.599952 -9.379432,-14.52937 l -4.380942,3.502767 z"
       id="path5170-2"
       inkscape:connector-curvature="0"
       inkscape:transform-center-y="-13.570589"
       inkscape:transform-center-x="-9.6608696" />
    <path
       style="fill:#ffffff;stroke:#1a1a1a;stroke-width:0.99999994;display:inline"
       d="m 25.227542,31.628702 c 0.533402,4.489222 -1.982686,7.237891 -5.440493,7.648742 -1.387491,0.164859 -2.356023,15.021207 -3.835767,14.430574 -1.320637,-0.527062 -3.181514,-16.422127 -4.006762,-17.58488 -0.554461,-0.781136 -0.936558,-1.709437 -1.064906,-2.789639 -0.154954,-1.304126 -0.08281,-3.304712 0.238164,-5.238189 0.362726,-2.18506 1.043262,-4.284218 2.072998,-5.19538 1.195794,-1.058181 2.712744,-1.774668 4.415423,-1.976978 1.782692,-0.211816 3.499542,0.172097 4.953031,0.995453 2.188067,1.239492 2.34782,7.012971 2.668312,9.710297 z"
       id="path5167-2"
       inkscape:connector-curvature="0"
       sodipodi:nodetypes="ssssssssss"
       inkscape:transform-center-x="-2.115488"
       inkscape:transform-center-y="-16.947038" />
    <path
       id="path5180-3"
       d="M 14.005011,22.857665 C 8.9761101,21.978274 -0.3468176,33.802665 1.456715,35.922778 2.6666479,36.379007 12.73484,27.771453 15.593409,25.980566 16.095755,25.128342 18.9517,24.003617 14.005011,22.857665 z"
       style="fill:#ffffff;stroke:#1a1a1a;stroke-width:0.99999994;display:inline"
       inkscape:connector-curvature="0"
       sodipodi:nodetypes="cccc"
       inkscape:transform-center-x="6.8860998"
       inkscape:transform-center-y="-24.866754" />
    <path
       sodipodi:type="arc"
       style="fill:#ffffff;fill-opacity:1;stroke:none;display:inline"
       id="path5188-0"
       sodipodi:cx="19"
       sodipodi:cy="29.375"
       sodipodi:rx="3.5"
       sodipodi:ry="3.5"
       d="m 22.5,29.375 a 3.5,3.5 0 1 1 -7,0 3.5,3.5 0 1 1 7,0 z"
       transform="matrix(1.0716005,-0.12732579,0.1161926,0.9779012,-7.9751996,-0.78759831)"
       inkscape:transform-center-x="0.13622205"
       inkscape:transform-center-y="-28.723343" />
    <path
       sodipodi:type="arc"
       style="fill:#ffffff;stroke:#1a1a1a;stroke-width:1.10740411;display:inline"
       id="path5165-3"
       sodipodi:cx="21.5"
       sodipodi:cy="13.5"
       sodipodi:rx="11.625"
       sodipodi:ry="11.625"
       d="m 33.125,13.5 a 11.625,11.625 0 1 1 -23.25,0 11.625,11.625 0 1 1 23.25,0 z"
       transform="matrix(0.89566604,-0.10642155,0.10666862,0.89774538,-3.8474902,2.0770898)"
       inkscape:transform-center-x="-0.91476645"
       inkscape:transform-center-y="-42.333813" />
    <path
       sodipodi:type="arc"
       style="fill:#ffffff;fill-opacity:1;stroke:#1a1a1a;stroke-width:1.10740411;stroke-linecap:round;stroke-linejoin:round;stroke-miterlimit:4;stroke-opacity:1;stroke-dasharray:none;display:inline"
       id="path5184-1"
       sodipodi:cx="22.75"
       sodipodi:cy="15.875"
       sodipodi:rx="2.25"
       sodipodi:ry="2.25"
       d="m 25,15.875 a 2.25,2.25 0 1 1 -4.5,0 2.25,2.25 0 1 1 4.5,0 z"
       transform="matrix(0.89566604,-0.10642155,0.10666862,0.89774538,-3.2876989,2.0105763)"
       inkscape:transform-center-x="-2.8474783"
       inkscape:transform-center-y="-40.401209" />
    <path
       style="fill:#ffffff;fill-opacity:1;stroke:#1a1a1a;stroke-width:0.99999994;stroke-linecap:round;stroke-linejoin:round;stroke-miterlimit:4;stroke-opacity:1;stroke-dasharray:none;display:inline"
       d="m 26.379152,10.890166 c -1.112991,0.132244 -1.907808,1.143688 -1.775248,2.259341 0.132548,1.115553 1.142257,1.912687 2.255248,1.780443 0.01847,-0.0022 0.03768,-0.004 0.05598,-0.0067 0.367184,-1.23213 0.475419,-2.558666 0.358363,-3.911807 -0.28117,-0.09791 -0.578994,-0.158794 -0.894342,-0.121325 z"
       id="path5186-8"
       inkscape:connector-curvature="0"
       inkscape:transform-center-x="-10.01941"
       inkscape:transform-center-y="-41.330785" />
  </g>
</svg>
