<?xml version="1.0" encoding="UTF-8" standalone="no"?>
<!-- Created with Inkscape (http://www.inkscape.org/) -->

<svg
   xmlns:dc="http://purl.org/dc/elements/1.1/"
   xmlns:cc="http://creativecommons.org/ns#"
   xmlns:rdf="http://www.w3.org/1999/02/22-rdf-syntax-ns#"
   xmlns:svg="http://www.w3.org/2000/svg"
   xmlns="http://www.w3.org/2000/svg"
   xmlns:sodipodi="http://sodipodi.sourceforge.net/DTD/sodipodi-0.dtd"
   xmlns:inkscape="http://www.inkscape.org/namespaces/inkscape"
   width="80"
   height="80"
   id="svg4575"
   version="1.1"
   inkscape:version="0.48.5 r10040"
   sodipodi:docname="shine.svg">
  <defs
     id="defs4577">
    <filter
       inkscape:collect="always"
       id="filter7990">
      <feGaussianBlur
         inkscape:collect="always"
         stdDeviation="0.42759004"
         id="feGaussianBlur7992" />
    </filter>
    <filter
       inkscape:collect="always"
       id="filter7994">
      <feGaussianBlur
         inkscape:collect="always"
         stdDeviation="0.40981849"
         id="feGaussianBlur7996" />
    </filter>
  </defs>
  <sodipodi:namedview
     id="base"
     pagecolor="#ffffff"
     bordercolor="#666666"
     borderopacity="1.0"
     inkscape:pageopacity="0.0"
     inkscape:pageshadow="2"
     inkscape:zoom="4"
     inkscape:cx="35.900958"
     inkscape:cy="45.035445"
     inkscape:document-units="px"
     inkscape:current-layer="svg4575"
     showgrid="false"
     inkscape:window-width="1366"
     inkscape:window-height="715"
     inkscape:window-x="0"
     inkscape:window-y="0"
     inkscape:window-maximized="1" />
  <metadata
     id="metadata4580">
    <rdf:RDF>
      <cc:Work
         rdf:about="">
        <dc:format>image/svg+xml</dc:format>
        <dc:type
           rdf:resource="http://purl.org/dc/dcmitype/StillImage" />
        <dc:title></dc:title>
      </cc:Work>
    </rdf:RDF>
  </metadata>
  <path
     sodipodi:type="star"
     style="opacity:0.59999999999999998;fill:#ffffff;fill-opacity:1;stroke:none;filter:url(#filter7994)"
     id="path7318"
     sodipodi:sides="10"
     sodipodi:cx="40"
     sodipodi:cy="45"
     sodipodi:r1="38.275318"
     sodipodi:r2="19.137659"
     sodipodi:arg1="0.52359878"
     sodipodi:arg2="0.83775804"
     inkscape:flatsided="false"
     inkscape:rounded="0"
     inkscape:randomized="0.1"
     d="M 74.856527,63.244469 53.427076,62.461766 54.638144,83.529171 42.01969,62.316366 31.494343,79.791424 33.074091,62.790684 14.766388,71.884723 21.767483,56.342394 4.7394139,49.402395 23.946342,37.719281 9.4057423,26.651353 30.961252,30.359914 22.09512,9.2925079 34.587516,27.579456 45.112863,10.104399 51.314237,30.030995 69.495882,18.0111 54.839722,33.553429 79.522855,40.493428 60.315927,52.176541 z"
     transform="matrix(1.0423375,0,0,1.0498165,-3.9148616,-8.7228653)" />
  <path
     transform="matrix(0.99901576,0,0,1.0061839,0.423908,-2.709259)"
     d="M 74.856527,63.244469 49.258682,54.469746 53.733531,76.536541 44.249601,57.310995 38.19882,80.85743 35.812676,56.48469 17.100943,73.680471 29.622617,49.994238 1.0306131,57.248679 24.498553,45.270896 3.3056157,39.701144 24.374642,40.678651 11.26794,16.256515 34.361722,32.566927 35.966884,4.0361146 37.620719,29.993052 54.337654,9.0152766 48.839094,35.093516 72.427883,21.823669 57.233243,41.278373 78.199552,39.74086 51.925619,48.926399 z"
     inkscape:randomized="0.1"
     inkscape:rounded="0"
     inkscape:flatsided="false"
     sodipodi:arg2="0.80919811"
     sodipodi:arg1="0.52359878"
     sodipodi:r2="14.589303"
     sodipodi:r1="38.275318"
     sodipodi:cy="45"
     sodipodi:cx="40"
     sodipodi:sides="11"
     id="path7320"
     style="opacity:0.40000000000000002;fill:#ffffff;fill-opacity:1;stroke:none;filter:url(#filter7990)"
     sodipodi:type="star" />
</svg>
