<?xml version="1.0" encoding="UTF-8" standalone="no"?>
<!-- Created with Inkscape (http://www.inkscape.org/) -->

<svg
   xmlns:dc="http://purl.org/dc/elements/1.1/"
   xmlns:cc="http://creativecommons.org/ns#"
   xmlns:rdf="http://www.w3.org/1999/02/22-rdf-syntax-ns#"
   xmlns:svg="http://www.w3.org/2000/svg"
   xmlns="http://www.w3.org/2000/svg"
   xmlns:sodipodi="http://sodipodi.sourceforge.net/DTD/sodipodi-0.dtd"
   xmlns:inkscape="http://www.inkscape.org/namespaces/inkscape"
   width="80"
   height="120"
   id="svg4575"
   version="1.1"
   inkscape:version="0.48.5 r10040"
   sodipodi:docname="viajero.xcf">
  <defs
     id="defs4577" />
  <sodipodi:namedview
     id="base"
     pagecolor="#ffffff"
     bordercolor="#666666"
     borderopacity="1.0"
     inkscape:pageopacity="0.0"
     inkscape:pageshadow="2"
     inkscape:zoom="4"
     inkscape:cx="46.400958"
     inkscape:cy="60.952648"
     inkscape:document-units="px"
     inkscape:current-layer="layer2"
     showgrid="false"
     inkscape:window-width="1366"
     inkscape:window-height="715"
     inkscape:window-x="0"
     inkscape:window-y="0"
     inkscape:window-maximized="1" />
  <metadata
     id="metadata4580">
    <rdf:RDF>
      <cc:Work
         rdf:about="">
        <dc:format>image/svg+xml</dc:format>
        <dc:type
           rdf:resource="http://purl.org/dc/dcmitype/StillImage" />
        <dc:title></dc:title>
      </cc:Work>
    </rdf:RDF>
  </metadata>
  <g
     inkscape:groupmode="layer"
     id="layer8"
     inkscape:label="walk0"
     style="display:inline"
     transform="translate(0,60)"
     sodipodi:insensitive="true">
    <path
       sodipodi:type="arc"
       style="opacity:0.4;fill:#808080;fill-opacity:1;stroke:none;display:inline"
       id="path5193-1"
       sodipodi:cx="20.152544"
       sodipodi:cy="53.812817"
       sodipodi:rx="12.727922"
       sodipodi:ry="2.6516504"
       d="m 32.880466,53.812817 a 12.727922,2.6516504 0 1 1 -25.4558444,0 12.727922,2.6516504 0 1 1 25.4558444,0 z"
       inkscape:transform-center-x="-38.848152"
       inkscape:transform-center-y="-5.3033008"
       transform="matrix(2,0,0,2,-0.06528698,-54.570995)" />
    <path
       sodipodi:nodetypes="cccc"
       inkscape:connector-curvature="0"
       style="fill:#ffffff;stroke:#1a1a1a;stroke-width:1.99999988;display:inline"
       d="m 40.753639,-10.145175 c 9.63475,-3.379998 31.897206,16.900954 29.032168,21.673934 -2.238046,1.296118 -24.918766,-12.39404803 -31.144716,-14.992608 -1.269908,-1.517164 -7.272774,-2.80207 2.112548,-6.681326 z"
       id="path5182-1"
       inkscape:transform-center-x="-51.417909"
       inkscape:transform-center-y="-57.811912" />
    <path
       style="fill:#ffffff;stroke:#1a1a1a;stroke-width:1.99999988;display:inline"
       d="m 37.832859,19.097723 3.951954,4.942746 -4.931314,3.942812 c 0.896774,-0.437898 1.77045,-0.98152 2.589296,-1.636226 2.18262,-1.745108 24.674916,17.740968 25.910812,14.803874 1.003728,-2.38503 -15.403736,-23.199904 -18.758864,-29.05874 l -8.761884,7.005534 z"
       id="path5170-2"
       inkscape:connector-curvature="0"
       inkscape:transform-center-y="-31.585306"
       inkscape:transform-center-x="-49.733982" />
    <path
       style="fill:#ffffff;stroke:#1a1a1a;stroke-width:1.99999988;display:inline"
       d="m 50.389797,8.686409 c 1.066804,8.978444 -3.965372,14.475782 -10.880986,15.297484 -2.774982,0.329718 -4.712046,30.042414 -7.671534,28.861148 -2.641274,-1.054124 -6.363028,-32.844254 -8.013524,-35.16976 -1.108922,-1.562272 -1.873116,-3.418874 -2.129812,-5.579278 -0.309908,-2.608252 -0.16562,-6.609424 0.476328,-10.476378 0.725452,-4.37012 2.086524,-8.568436 4.145996,-10.39076 2.391588,-2.116362 5.425488,-3.549336 8.830846,-3.953956 3.565384,-0.423632 6.999084,0.344194 9.906062,1.990906 4.376134,2.478984 4.69564,14.025942 5.336624,19.420594 z"
       id="path5167-2"
       inkscape:connector-curvature="0"
       sodipodi:nodetypes="ssssssssss"
       inkscape:transform-center-x="-34.643219"
       inkscape:transform-center-y="-38.338205" />
    <path
       id="path5180-3"
       d="m 27.944735,-8.855665 c -10.057802,-1.758782 -28.70365698,21.89 -25.096592,26.130226 2.419866,0.912458 22.55625,-16.30265003 28.273388,-19.884424 1.004692,-1.704448 6.716582,-3.953898 -3.176796,-6.245802 z"
       style="fill:#ffffff;stroke:#1a1a1a;stroke-width:1.99999988;display:inline"
       inkscape:connector-curvature="0"
       sodipodi:nodetypes="cccc"
       inkscape:transform-center-x="-16.640043"
       inkscape:transform-center-y="-54.177636" />
    <path
       sodipodi:type="arc"
       style="fill:#ffffff;fill-opacity:1;stroke:none;display:inline"
       id="path5188-0"
       sodipodi:cx="19"
       sodipodi:cy="29.375"
       sodipodi:rx="3.5"
       sodipodi:ry="3.5"
       d="m 22.5,29.375 a 3.5,3.5 0 1 1 -7,0 3.5,3.5 0 1 1 7,0 z"
       transform="matrix(2.143201,-0.25465158,0.2323852,1.9558024,-16.015686,-56.146192)"
       inkscape:transform-center-x="-30.139799"
       inkscape:transform-center-y="-61.890816" />
    <path
       sodipodi:type="arc"
       style="fill:#ffffff;stroke:#1a1a1a;stroke-width:1.10740411;display:inline"
       id="path5165-3"
       sodipodi:cx="21.5"
       sodipodi:cy="13.5"
       sodipodi:rx="11.625"
       sodipodi:ry="11.625"
       d="m 33.125,13.5 a 11.625,11.625 0 1 1 -23.25,0 11.625,11.625 0 1 1 23.25,0 z"
       transform="matrix(1.7913321,-0.2128431,0.21333724,1.7954908,-7.760267,-50.416815)"
       inkscape:transform-center-x="-32.241776"
       inkscape:transform-center-y="-89.111755" />
    <path
       sodipodi:type="arc"
       style="fill:#ffffff;fill-opacity:1;stroke:#1a1a1a;stroke-width:1.10740411;stroke-linecap:round;stroke-linejoin:round;stroke-miterlimit:4;stroke-opacity:1;stroke-dasharray:none;display:inline"
       id="path5184-1"
       sodipodi:cx="22.75"
       sodipodi:cy="15.875"
       sodipodi:rx="2.25"
       sodipodi:ry="2.25"
       d="m 25,15.875 a 2.25,2.25 0 1 1 -4.5,0 2.25,2.25 0 1 1 4.5,0 z"
       transform="matrix(1.7913321,-0.2128431,0.21333724,1.7954908,-6.640685,-50.549842)"
       inkscape:transform-center-x="-36.1072"
       inkscape:transform-center-y="-85.246545" />
    <path
       style="fill:#ffffff;fill-opacity:1;stroke:#1a1a1a;stroke-width:1.99999988;stroke-linecap:round;stroke-linejoin:round;stroke-miterlimit:4;stroke-opacity:1;stroke-dasharray:none;display:inline"
       d="m 52.693017,-32.790663 c -2.225982,0.264488 -3.815616,2.287376 -3.550496,4.518682 0.265096,2.231106 2.284514,3.825374 4.510496,3.560886 0.03694,-0.0044 0.07536,-0.008 0.11196,-0.0134 0.734368,-2.46426 0.950838,-5.117332 0.716726,-7.823614 -0.56234,-0.19582 -1.157988,-0.317588 -1.788684,-0.24265 z"
       id="path5186-8"
       inkscape:connector-curvature="0"
       inkscape:transform-center-x="-50.451062"
       inkscape:transform-center-y="-87.105697" />
  </g>
  <g
     style="display:inline"
     inkscape:groupmode="layer"
     id="g3277"
     inkscape:label="walk1"
     transform="translate(0,60)"
     sodipodi:insensitive="true">
    <path
       sodipodi:type="arc"
       style="opacity:0.4;fill:#808080;fill-opacity:1;stroke:none;display:inline"
       id="path3279"
       sodipodi:cx="20.152544"
       sodipodi:cy="53.812817"
       sodipodi:rx="12.727922"
       sodipodi:ry="2.6516504"
       d="m 32.880466,53.812817 a 12.727922,2.6516504 0 1 1 -25.4558444,0 12.727922,2.6516504 0 1 1 25.4558444,0 z"
       inkscape:transform-center-x="-38.848152"
       inkscape:transform-center-y="-5.3033008"
       transform="matrix(2,0,0,2,-0.06528698,-54.570995)" />
    <path
       sodipodi:nodetypes="cccc"
       inkscape:connector-curvature="0"
       style="fill:#ffffff;stroke:#1a1a1a;stroke-width:1.99999988;display:inline"
       d="M 48.593475,-5.680769 C 58.769349,-6.520047 75.193409,18.722463 71.216633,22.617977 68.723945,23.307377 50.231973,4.336801 44.863265,0.25122497 44.017313,-1.537301 38.532971,-4.295443 48.593475,-5.680769 z"
       id="path3281"
       inkscape:transform-center-x="-55.827651"
       inkscape:transform-center-y="-49.890403" />
    <path
       style="fill:#ffffff;stroke:#1a1a1a;stroke-width:1.99999988;display:inline"
       d="m 44.677187,22.143337 0.674252,6.29238 -6.277826,0.672692 c 0.991556,0.113 2.02049,0.12444 3.06293,0.0128 2.77859,-0.297742 11.264688,28.225872 13.88601,26.414074 2.128728,-1.471178 -0.512546,-27.843276 -0.19102,-34.587124 l -11.154352,1.195238 z"
       id="path3283"
       inkscape:connector-curvature="0"
       inkscape:transform-center-y="-20.074815"
       inkscape:transform-center-x="-46.575015" />
    <path
       style="fill:#ffffff;stroke:#1a1a1a;stroke-width:1.99999988;display:inline"
       d="m 58.873209,14.900541 c 0.43659,9.031054 -4.967548,14.163192 -11.92368,14.499474 -2.791244,0.13494 -14.546754,26.372632 -17.416432,24.987382 -2.561128,-1.236174 3.69462,-29.941776 2.21072,-32.376968 -0.997006,-1.635966 -1.629554,-3.541442 -1.734606,-5.714508 -0.12682,-2.623534 0.296794,-6.604832 1.207474,-10.417454 1.029154,-4.308722 2.680364,-8.401626 4.862182,-10.075536 2.533672,-1.944006 5.660318,-3.161406 9.085632,-3.326994 3.586272,-0.17338 6.957902,0.832594 9.742664,2.67848 4.192144,2.778818 3.703722,14.319864 3.966046,19.746124 z"
       id="path3285"
       inkscape:connector-curvature="0"
       sodipodi:nodetypes="ssssssssss"
       inkscape:transform-center-x="-42.512199"
       inkscape:transform-center-y="-34.909409" />
    <path
       id="path3287"
       d="M 38.018985,-4.918003 C 27.936393,-6.528605 9.640516,17.391963 13.30958,21.578657 15.74261,22.455411 35.623515,4.945889 41.287335,1.280381 c 0.979504,-1.71904603 6.657678,-4.052294 -3.26835,-6.198384 z"
       style="fill:#ffffff;stroke:#1a1a1a;stroke-width:1.99999988;display:inline"
       inkscape:connector-curvature="0"
       sodipodi:nodetypes="cccc"
       inkscape:transform-center-x="-26.918497"
       inkscape:transform-center-y="-50.050551" />
    <path
       sodipodi:type="arc"
       style="fill:#ffffff;fill-opacity:1;stroke:none;display:inline"
       id="path3289"
       sodipodi:cx="19"
       sodipodi:cy="29.375"
       sodipodi:rx="3.5"
       sodipodi:ry="3.5"
       d="m 22.5,29.375 a 3.5,3.5 0 1 1 -7,0 3.5,3.5 0 1 1 7,0 z"
       transform="matrix(2.155759,-0.10421636,0.09510384,1.9672624,-2.837964,-54.415295)"
       inkscape:transform-center-x="-39.523483"
       inkscape:transform-center-y="-56.965012" />
    <path
       sodipodi:type="arc"
       style="fill:#ffffff;stroke:#1a1a1a;stroke-width:1.10740411;display:inline"
       id="path3291"
       sodipodi:cx="21.5"
       sodipodi:cy="13.5"
       sodipodi:rx="11.625"
       sodipodi:ry="11.625"
       d="m 33.125,13.5 a 11.625,11.625 0 1 1 -23.25,0 11.625,11.625 0 1 1 23.25,0 z"
       transform="matrix(1.8018283,-0.0871062,0.08730844,1.8060114,4.996771,-48.122869)"
       inkscape:transform-center-x="-43.523094"
       inkscape:transform-center-y="-83.972437" />
    <path
       sodipodi:type="arc"
       style="fill:#ffffff;fill-opacity:1;stroke:#1a1a1a;stroke-width:1.10740411;stroke-linecap:round;stroke-linejoin:round;stroke-miterlimit:4;stroke-opacity:1;stroke-dasharray:none;display:inline"
       id="path3293"
       sodipodi:cx="22.75"
       sodipodi:cy="15.875"
       sodipodi:rx="2.25"
       sodipodi:ry="2.25"
       d="m 25,15.875 a 2.25,2.25 0 1 1 -4.5,0 2.25,2.25 0 1 1 4.5,0 z"
       transform="matrix(1.8018283,-0.0871062,0.08730844,1.8060114,6.122914,-48.177311)"
       inkscape:transform-center-x="-47.10888"
       inkscape:transform-center-y="-79.846485" />
    <path
       style="fill:#ffffff;fill-opacity:1;stroke:#1a1a1a;stroke-width:1.99999988;stroke-linecap:round;stroke-linejoin:round;stroke-miterlimit:4;stroke-opacity:1;stroke-dasharray:none;display:inline"
       d="m 64.070093,-26.314077 c -2.239026,0.10824 -3.966174,2.015068 -3.857674,4.259446 0.10848,2.24418 2.01153,3.975708 4.250556,3.867468 0.03716,-0.0019 0.07576,-0.0026 0.11266,-0.0054 0.904824,-2.406898 1.306218,-5.03835 1.261848,-7.754376 -0.547274,-0.234652 -1.132954,-0.397756 -1.767346,-0.367088 z"
       id="path3295"
       inkscape:connector-curvature="0"
       inkscape:transform-center-x="-61.632532"
       inkscape:transform-center-y="-80.607981" />
  </g>
  <g
     inkscape:label="walk2"
     id="g3257"
     inkscape:groupmode="layer"
     style="display:inline"
     transform="translate(0,60)"
     sodipodi:insensitive="true">
    <path
       d="m 32.880466,53.812817 a 12.727922,2.6516504 0 1 1 -25.4558444,0 12.727922,2.6516504 0 1 1 25.4558444,0 z"
       sodipodi:ry="2.6516504"
       sodipodi:rx="12.727922"
       sodipodi:cy="53.812817"
       sodipodi:cx="20.152544"
       id="path3259"
       style="opacity:0.4;fill:#808080;fill-opacity:1;stroke:none;display:inline"
       sodipodi:type="arc"
       inkscape:transform-center-x="-38.848152"
       inkscape:transform-center-y="-5.3033008"
       transform="matrix(2,0,0,2,-0.06528698,-54.570995)" />
    <path
       inkscape:transform-center-y="-53.976406"
       inkscape:transform-center-x="-59.549214"
       id="path3261"
       d="M 48.036667,-5.155947 C 57.403247,-9.220425 81.067259,9.406129 78.553073,14.372883 76.414087,15.826673 52.807115,3.803917 46.410331,1.660065 45.034551,0.23820497 38.954793,-0.61145103 48.036667,-5.155947 z"
       style="fill:#ffffff;stroke:#1a1a1a;stroke-width:1.99999988;display:inline"
       inkscape:connector-curvature="0"
       sodipodi:nodetypes="cccc" />
    <path
       inkscape:transform-center-x="-41.003308"
       inkscape:transform-center-y="-22.344905"
       inkscape:connector-curvature="0"
       id="path3263"
       d="m 39.518711,19.595397 0.513872,6.307504 -6.292914,0.512684 c 0.98836,0.1382 2.01667,0.17582 3.061612,0.0907 2.78527,-0.22692 10.5426,28.503454 13.20919,26.758962 2.165484,-1.416518 0.19632,-27.8473 0.689398,-34.580778 l -11.181158,0.910934 z"
       style="fill:#ffffff;stroke:#1a1a1a;stroke-width:1.99999988;display:inline" />
    <path
       inkscape:transform-center-y="-42.276873"
       inkscape:transform-center-x="-30.737103"
       sodipodi:nodetypes="ssssssssss"
       inkscape:connector-curvature="0"
       id="path3265"
       d="M 54.217537,14.852433 C 52.980409,23.808997 46.722171,27.855969 39.823411,26.903075 37.055191,26.520713 11.171159,43.779101 8.606323,41.888181 6.317237,40.200701 27.251251,19.502069 26.242115,16.834907 25.564061,15.043079 25.293933,13.053609 25.591611,10.898469 25.950999,8.296573 27.101895,4.461781 28.700371,0.88263097 30.506813,-3.162241 32.884815,-6.880235 35.338011,-8.122863 c 2.848846,-1.443174 6.146424,-2.062808 9.543484,-1.593588 3.556694,0.49127 6.68484,2.102032 9.08123,4.430014 3.607488,3.50456 0.998134,14.757366 0.254812,20.13887 z"
       style="fill:#ffffff;stroke:#1a1a1a;stroke-width:1.99999988;display:inline" />
    <path
       inkscape:transform-center-y="-63.254702"
       inkscape:transform-center-x="-20.584367"
       sodipodi:nodetypes="cccc"
       inkscape:connector-curvature="0"
       style="fill:#ffffff;stroke:#1a1a1a;stroke-width:1.99999988;display:inline"
       d="M 38.030075,-7.900981 C 30.638835,-14.945287 2.00423,-5.618325 2.652054,-0.08924103 4.158839,2.012647 30.463333,-1.134963 37.207043,-0.94219503 c 1.781628,-0.86043797 7.781652,0.437792 0.823032,-6.95878597 z"
       id="path3267" />
    <path
       inkscape:transform-center-y="-60.094488"
       inkscape:transform-center-x="-37.668252"
       transform="matrix(2.1379782,0.2953089,-0.26948748,1.9510362,6.35451,-64.659106)"
       d="m 22.5,29.375 a 3.5,3.5 0 1 1 -7,0 3.5,3.5 0 1 1 7,0 z"
       sodipodi:ry="3.5"
       sodipodi:rx="3.5"
       sodipodi:cy="29.375"
       sodipodi:cx="19"
       id="path3269"
       style="fill:#ffffff;fill-opacity:1;stroke:none;display:inline"
       sodipodi:type="arc" />
    <path
       inkscape:transform-center-y="-85.900339"
       inkscape:transform-center-x="-46.582052"
       transform="matrix(1.7869667,0.24682534,-0.24739834,1.7911153,12.893795,-57.029201)"
       d="m 33.125,13.5 a 11.625,11.625 0 1 1 -23.25,0 11.625,11.625 0 1 1 23.25,0 z"
       sodipodi:ry="11.625"
       sodipodi:rx="11.625"
       sodipodi:cy="13.5"
       sodipodi:cx="21.5"
       id="path3271"
       style="fill:#ffffff;stroke:#1a1a1a;stroke-width:1.10740411;display:inline"
       sodipodi:type="arc" />
    <path
       inkscape:transform-center-y="-81.183642"
       inkscape:transform-center-x="-49.345044"
       transform="matrix(1.7869667,0.24682534,-0.24739834,1.7911153,14.010649,-56.874935)"
       d="m 25,15.875 a 2.25,2.25 0 1 1 -4.5,0 2.25,2.25 0 1 1 4.5,0 z"
       sodipodi:ry="2.25"
       sodipodi:rx="2.25"
       sodipodi:cy="15.875"
       sodipodi:cx="22.75"
       id="path3273"
       style="fill:#ffffff;fill-opacity:1;stroke:#1a1a1a;stroke-width:1.10740411;stroke-linecap:round;stroke-linejoin:round;stroke-miterlimit:4;stroke-opacity:1;stroke-dasharray:none;display:inline"
       sodipodi:type="arc" />
    <path
       inkscape:transform-center-y="-79.035407"
       inkscape:transform-center-x="-64.064204"
       inkscape:connector-curvature="0"
       id="path3275"
       d="m 66.929275,-24.695817 c -2.220558,-0.306714 -4.269862,1.248716 -4.577312,3.474584 -0.307422,2.22567 1.24348,4.27858 3.464038,4.585296 0.03686,0.005 0.07494,0.0114 0.11172,0.0154 1.333364,-2.198638 2.213368,-4.710858 2.670866,-7.388444 -0.494588,-0.331592 -1.04012,-0.599956 -1.669278,-0.68686 z"
       style="fill:#ffffff;fill-opacity:1;stroke:#1a1a1a;stroke-width:1.99999988;stroke-linecap:round;stroke-linejoin:round;stroke-miterlimit:4;stroke-opacity:1;stroke-dasharray:none;display:inline" />
  </g>
  <g
     inkscape:label="Layer 1"
     inkscape:groupmode="layer"
     id="layer1"
     transform="translate(0,-932.36218)"
     style="display:inline"
     sodipodi:insensitive="true">
    <path
       sodipodi:type="arc"
       style="opacity:0.4;fill:#808080;fill-opacity:1;stroke:none"
       id="path5193"
       sodipodi:cx="20.152544"
       sodipodi:cy="53.812817"
       sodipodi:rx="12.727922"
       sodipodi:ry="2.6516504"
       d="m 32.880466,53.812817 a 12.727922,2.6516504 0 1 1 -25.4558444,0 12.727922,2.6516504 0 1 1 25.4558444,0 z"
       transform="matrix(2,0,0,2,-0.06528698,937.79118)"
       inkscape:transform-center-x="-38.848152"
       inkscape:transform-center-y="-5.3033058" />
    <path
       sodipodi:nodetypes="cccc"
       inkscape:connector-curvature="0"
       style="fill:#ffffff;stroke:#1a1a1a;stroke-width:1.99999988"
       d="m 49.248839,984.8138 c 9.962652,2.2358 18.10476,31.2296 13.1466,33.7608 -2.58481,-0.086 -14.57243,-23.7108 -18.477178,-29.2124 -0.273574,-1.9596 -4.684838,-6.2288 5.330578,-4.5484 z"
       id="path5182"
       inkscape:transform-center-x="-51.912243"
       inkscape:transform-center-y="-49.217677" />
    <path
       style="fill:#ffffff;stroke:#1a1a1a;stroke-width:1.99999988"
       d="m 42.708477,1010.783 0,6.3284 -6.313764,0 c 0.973874,0.218 1.995734,0.339 3.044136,0.339 2.7945,0 8.193274,29.2654 10.992714,27.7432 2.273356,-1.236 2.456894,-27.7394 3.49512,-34.4106 l -11.218206,0 z"
       id="path5170"
       inkscape:connector-curvature="0"
       inkscape:transform-center-x="-43.769049"
       inkscape:transform-center-y="-22.703125" />
    <path
       style="fill:#ffffff;stroke:#1a1a1a;stroke-width:1.99999988"
       d="m 55.596283,1003.5574 c 0,9.0416 -5.645648,13.9068 -12.609908,13.9068 -2.794502,0 -8.223788,29.2766 -11.023228,27.7544 -2.49845,-1.3584 -2.443342,-33.3656 -3.807926,-35.8696 -0.916846,-1.6822 -1.456646,-3.616 -1.456646,-5.7916 0,-2.6266 0.615366,-6.5828 1.709092,-10.347 1.236008,-4.254 3.082926,-8.2624 5.343026,-9.829 2.624588,-1.8194 5.80637,-2.8844 9.235682,-2.8844 3.590464,0 6.909584,1.1676 9.601964,3.1458 4.053076,2.978 3.007944,14.482 3.007944,19.9146 z"
       id="path5167"
       inkscape:connector-curvature="0"
       sodipodi:nodetypes="ssssssssss"
       inkscape:transform-center-x="-39.816277"
       inkscape:transform-center-y="-37.833636" />
    <path
       id="path5180"
       d="m 33.682329,984.5878 c -9.962652,2.2358 -18.104757,31.2296 -13.146598,33.7608 2.584808,-0.086 14.572428,-23.7108 18.477176,-29.2124 0.273574,-1.9596 4.68484,-6.2288 -5.330578,-4.5484 z"
       style="fill:#ffffff;stroke:#1a1a1a;stroke-width:1.99999988"
       inkscape:connector-curvature="0"
       sodipodi:nodetypes="cccc"
       inkscape:transform-center-x="-28.235628"
       inkscape:transform-center-y="-49.443677" />
    <path
       sodipodi:type="arc"
       style="fill:#ffffff;fill-opacity:1;stroke:none"
       id="path5188"
       sodipodi:cx="19"
       sodipodi:cy="29.375"
       sodipodi:rx="3.5"
       sodipodi:ry="3.5"
       d="m 22.5,29.375 a 3.5,3.5 0 1 1 -7,0 3.5,3.5 0 1 1 7,0 z"
       transform="matrix(2.1582766,0,0,1.9695598,-2.695862,931.3426)"
       inkscape:transform-center-x="-36.919744"
       inkscape:transform-center-y="-61.5217" />
    <path
       sodipodi:type="arc"
       style="fill:#ffffff;stroke:#1a1a1a;stroke-width:1.10740411"
       id="path5165"
       sodipodi:cx="21.5"
       sodipodi:cy="13.5"
       sodipodi:rx="11.625"
       sodipodi:ry="11.625"
       d="m 33.125,13.5 a 11.625,11.625 0 1 1 -23.25,0 11.625,11.625 0 1 1 23.25,0 z"
       transform="matrix(1.8039326,0,0,1.8081205,4.825892,938.006)"
       inkscape:transform-center-x="-42.218793"
       inkscape:transform-center-y="-88.304492" />
    <path
       sodipodi:type="arc"
       style="fill:#ffffff;fill-opacity:1;stroke:#1a1a1a;stroke-width:1.10740411;stroke-linecap:round;stroke-linejoin:round;stroke-miterlimit:4;stroke-opacity:1;stroke-dasharray:none"
       id="path5184"
       sodipodi:cx="22.75"
       sodipodi:cy="15.875"
       sodipodi:rx="2.25"
       sodipodi:ry="2.25"
       d="m 25,15.875 a 2.25,2.25 0 1 1 -4.5,0 2.25,2.25 0 1 1 4.5,0 z"
       transform="matrix(1.8039326,0,0,1.8081205,5.95335,938.006)"
       inkscape:transform-center-x="-45.601167"
       inkscape:transform-center-y="-84.010206" />
    <path
       style="fill:#ffffff;fill-opacity:1;stroke:#1a1a1a;stroke-width:1.99999988;stroke-linecap:round;stroke-linejoin:round;stroke-miterlimit:4;stroke-opacity:1;stroke-dasharray:none"
       d="m 62.777227,962.64182 c -2.24164,0 -4.058848,1.8212 -4.058848,4.0682 0,2.2468 1.817208,4.0682 4.058848,4.0682 0.0372,0 0.07578,10e-4 0.11274,0 1.019992,-2.3604 1.547982,-4.9694 1.634814,-7.6844 -0.535308,-0.2608 -1.112428,-0.452 -1.74756,-0.452 z"
       id="path5186"
       inkscape:connector-curvature="0"
       inkscape:transform-center-x="-60.229931"
       inkscape:transform-center-y="-84.009877" />
  </g>
  <g
     inkscape:groupmode="layer"
     id="layer9"
     inkscape:label="jump up"
     transform="translate(0,60)"
     sodipodi:insensitive="true"
     style="display:inline">
    <path
       sodipodi:nodetypes="cccc"
       inkscape:connector-curvature="0"
       style="fill:#ffffff;stroke:#1a1a1a;stroke-width:1.99999988;display:inline"
       d="m 49.661663,-7.613157 c 9.380026,4.033402 12.03979,34.03107 6.700098,35.605244 -2.524694,-0.56085 -9.9535,-25.990106 -12.777554,-32.117044 0.09222,-1.976454 -3.45678,-6.985438 6.077456,-3.4882 z"
       id="path5182-5"
       inkscape:transform-center-x="-49.656868"
       inkscape:transform-center-y="-48.772707" />
    <path
       style="fill:#ffffff;stroke:#1a1a1a;stroke-width:1.99999988;display:inline"
       d="m 42.551101,17.871837 -1.356804,6.18124 -6.166944,-1.353666 c 0.904488,0.421728 1.876644,0.759002 2.900666,0.983778 2.729518,0.599138 1.728272,30.341496 4.788972,29.454892 2.48549,-0.719854 8.347066,-26.567596 10.79145,-32.86107 l -10.95734,-2.405174 z"
       id="path5170-1"
       inkscape:connector-curvature="0"
       inkscape:transform-center-y="-22.843263"
       inkscape:transform-center-x="-42.876248" />
    <path
       style="fill:#ffffff;stroke:#1a1a1a;stroke-width:1.99999988;display:inline"
       d="m 55.596283,11.195245 c 0,9.0416 -5.645648,13.9068 -12.609908,13.9068 -2.794502,0 -13.723788,29.2766 -16.523228,27.7544 -2.49845,-1.3584 3.056658,-33.3656 1.692074,-35.8696 -0.916846,-1.6822 -1.456646,-3.616 -1.456646,-5.7916 0,-2.6266 0.615366,-6.5828 1.709092,-10.34700003 1.236008,-4.25399997 3.082926,-8.26239997 5.343026,-9.82899997 2.624588,-1.8194 5.80637,-2.8844 9.235682,-2.8844 3.590464,0 6.909584,1.1676 9.601964,3.1458 4.053076,2.978 3.007944,14.482 3.007944,19.9146 z"
       id="path5167-4"
       inkscape:connector-curvature="0"
       sodipodi:nodetypes="ssssssssss"
       inkscape:transform-center-x="-39.371221"
       inkscape:transform-center-y="-37.833611" />
    <path
       id="path5180-30"
       d="m 34.190967,-6.777007 c -9.012032,4.799636 -9.16743,34.914586 -3.715308,36.03916 2.469296,-0.768904 7.757202,-26.727954 10.061846,-33.06856 -0.2563,-1.961934 2.863768,-7.248758 -6.346538,-2.9706 z"
       style="fill:#ffffff;stroke:#1a1a1a;stroke-width:1.99999988;display:inline"
       inkscape:connector-curvature="0"
       sodipodi:nodetypes="cccc"
       inkscape:transform-center-x="-32.437226"
       inkscape:transform-center-y="-47.929117" />
    <path
       sodipodi:type="arc"
       style="fill:#ffffff;fill-opacity:1;stroke:none;display:inline"
       id="path5188-07"
       sodipodi:cx="19"
       sodipodi:cy="29.375"
       sodipodi:rx="3.5"
       sodipodi:ry="3.5"
       d="m 22.5,29.375 a 3.5,3.5 0 1 1 -7,0 3.5,3.5 0 1 1 7,0 z"
       transform="matrix(2.1582766,0,0,1.9695598,-1.445862,-61.019575)"
       inkscape:transform-center-x="-38.169744"
       inkscape:transform-center-y="-61.521695" />
    <path
       sodipodi:type="arc"
       style="fill:#ffffff;stroke:#1a1a1a;stroke-width:1.10740411;display:inline"
       id="path5165-2"
       sodipodi:cx="21.5"
       sodipodi:cy="13.5"
       sodipodi:rx="11.625"
       sodipodi:ry="11.625"
       d="m 33.125,13.5 a 11.625,11.625 0 1 1 -23.25,0 11.625,11.625 0 1 1 23.25,0 z"
       transform="matrix(1.8039326,0,0,1.8081205,2.325892,-56.606175)"
       inkscape:transform-center-x="-39.718793"
       inkscape:transform-center-y="-90.554487" />
    <path
       sodipodi:type="arc"
       style="fill:#ffffff;fill-opacity:1;stroke:#1a1a1a;stroke-width:1.10740411;stroke-linecap:round;stroke-linejoin:round;stroke-miterlimit:4;stroke-opacity:1;stroke-dasharray:none;display:inline"
       id="path5184-8"
       sodipodi:cx="22.75"
       sodipodi:cy="15.875"
       sodipodi:rx="2.25"
       sodipodi:ry="2.25"
       d="m 25,15.875 a 2.25,2.25 0 1 1 -4.5,0 2.25,2.25 0 1 1 4.5,0 z"
       transform="matrix(1.8039326,0,0,1.8081205,3.45335,-65.798563)"
       inkscape:transform-center-x="-43.101167"
       inkscape:transform-center-y="-95.452589" />
    <path
       style="fill:#ffffff;fill-opacity:1;stroke:#1a1a1a;stroke-width:1.99999988;stroke-linecap:round;stroke-linejoin:round;stroke-miterlimit:4;stroke-opacity:1;stroke-dasharray:none;display:inline"
       d="m 60.059713,-41.133495 c -2.24164,0 -4.0625,1.815656 -4.0625,4.0625 0,2.246844 1.82086,4.0625 4.0625,4.0625 0.710328,0 1.356724,-0.17864 1.9375,-0.5 -0.16964,-2.713192 -0.837076,-5.287512 -1.9375,-7.625 z"
       id="path8919"
       inkscape:connector-curvature="0"
       inkscape:transform-center-x="-57.605564"
       inkscape:transform-center-y="-95.428934" />
  </g>
  <g
     inkscape:label="jump down"
     id="g8924"
     inkscape:groupmode="layer"
     transform="translate(0,60)"
     sodipodi:insensitive="true"
     style="display:inline">
    <path
       inkscape:transform-center-y="-70.98109"
       inkscape:transform-center-x="-60.78237"
       id="path8926"
       d="m 47.864011,-4.204249 c -0.694538,-10.186798 24.779066,-26.250108 28.617676,-22.21831 0.653808,2.502232 -18.577856,20.722476 -22.739346,26.03252797 -1.800502,0.820408 -4.63637,6.26496203 -5.87833,-3.81421797 z"
       style="fill:#ffffff;stroke:#1a1a1a;stroke-width:1.99999988;display:inline"
       inkscape:connector-curvature="0"
       sodipodi:nodetypes="cccc" />
    <path
       inkscape:transform-center-x="-48.583205"
       inkscape:transform-center-y="-25.567312"
       inkscape:connector-curvature="0"
       id="path8928"
       d="m 43.116107,19.104007 1.879462,6.04287 -6.028892,1.875116 c 0.994676,-0.08106 2.006368,-0.269004 3.007466,-0.580368 2.668416,-0.829936 16.515092,25.511664 18.736148,23.226744 1.803706,-1.855396 -5.892244,-27.217496 -6.882132,-33.89604 l -10.712052,3.331678 z"
       style="fill:#ffffff;stroke:#1a1a1a;stroke-width:1.99999988;display:inline" />
    <path
       sodipodi:nodetypes="ssssssssss"
       inkscape:connector-curvature="0"
       id="path8930"
       d="m 55.596283,11.195245 c 0,9.0416 -5.645648,13.9068 -12.609908,13.9068 -2.794502,0 1.276212,30.5266 -1.523228,29.0044 -2.49845,-1.3584 -11.943342,-34.6156 -13.307926,-37.1196 -0.916846,-1.6822 -1.456646,-3.616 -1.456646,-5.7916 0,-2.6266 0.615366,-6.5828 1.709092,-10.34700003 1.236008,-4.25399997 3.082926,-8.26239997 5.343026,-9.82899997 2.624588,-1.8194 5.80637,-2.8844 9.235682,-2.8844 3.590464,0 6.909584,1.1676 9.601964,3.1458 4.053076,2.978 3.007944,14.482 3.007944,19.9146 z"
       style="fill:#ffffff;stroke:#1a1a1a;stroke-width:1.99999988;display:inline"
       inkscape:transform-center-x="-39.816277"
       inkscape:transform-center-y="-37.209748" />
    <path
       inkscape:transform-center-y="-68.037747"
       inkscape:transform-center-x="-19.095047"
       sodipodi:nodetypes="cccc"
       inkscape:connector-curvature="0"
       style="fill:#ffffff;stroke:#1a1a1a;stroke-width:1.99999988;display:inline"
       d="m 37.101549,-5.394693 c -2.084518,-9.9954 -30.951563,-18.57608 -33.557632,-13.656862 0.04681,2.585816 23.487174,14.930182 28.92895,18.91787997 1.955228,0.303244 6.157068,4.77872403 4.628682,-5.26101797 z"
       id="path8932" />
    <path
       transform="matrix(2.1582766,0,0,1.9695598,-1.445862,-61.019575)"
       d="m 22.5,29.375 a 3.5,3.5 0 1 1 -7,0 3.5,3.5 0 1 1 7,0 z"
       sodipodi:ry="3.5"
       sodipodi:rx="3.5"
       sodipodi:cy="29.375"
       sodipodi:cx="19"
       id="path8934"
       style="fill:#ffffff;fill-opacity:1;stroke:none;display:inline"
       sodipodi:type="arc"
       inkscape:transform-center-x="-38.169744"
       inkscape:transform-center-y="-61.521695" />
    <path
       transform="matrix(1.8039326,0,0,-1.8081205,2.325892,-1.786921)"
       d="m 33.125,13.5 a 11.625,11.625 0 1 1 -23.25,0 11.625,11.625 0 1 1 23.25,0 z"
       sodipodi:ry="11.625"
       sodipodi:rx="11.625"
       sodipodi:cy="13.5"
       sodipodi:cx="21.5"
       id="path8936"
       style="fill:#ffffff;stroke:#1a1a1a;stroke-width:1.10740411;display:inline"
       sodipodi:type="arc"
       inkscape:transform-center-x="-39.718793"
       inkscape:transform-center-y="-84.554487" />
    <path
       transform="matrix(1.8039326,0,0,-1.8081205,3.45335,7.405467)"
       d="m 25,15.875 a 2.25,2.25 0 1 1 -4.5,0 2.25,2.25 0 1 1 4.5,0 z"
       sodipodi:ry="2.25"
       sodipodi:rx="2.25"
       sodipodi:cy="15.875"
       sodipodi:cx="22.75"
       id="path8938"
       style="fill:#ffffff;fill-opacity:1;stroke:#1a1a1a;stroke-width:1.10740411;stroke-linecap:round;stroke-linejoin:round;stroke-miterlimit:4;stroke-opacity:1;stroke-dasharray:none;display:inline"
       sodipodi:type="arc"
       inkscape:transform-center-x="-43.101167"
       inkscape:transform-center-y="-79.656385" />
    <path
       inkscape:connector-curvature="0"
       id="path8940"
       d="m 60.059713,-17.259601 c -2.24164,0 -4.0625,-1.815656 -4.0625,-4.0625 0,-2.246844 1.82086,-4.0625 4.0625,-4.0625 0.710328,0 1.356724,0.17864 1.9375,0.5 -0.16964,2.713192 -0.837076,5.287512 -1.9375,7.625 z"
       style="fill:#ffffff;fill-opacity:1;stroke:#1a1a1a;stroke-width:1.99999988;stroke-linecap:round;stroke-linejoin:round;stroke-miterlimit:4;stroke-opacity:1;stroke-dasharray:none;display:inline"
       inkscape:transform-center-x="-57.605564"
       inkscape:transform-center-y="-79.68004" />
  </g>
  <g
     inkscape:groupmode="layer"
     id="layer2"
     inkscape:label="action0"
     style="display:inline"
     sodipodi:insensitive="true">
    <path
       sodipodi:type="arc"
       style="opacity:0.4;fill:#808080;fill-opacity:1;stroke:none;display:inline"
       id="path5193-2"
       sodipodi:cx="20.152544"
       sodipodi:cy="53.812817"
       sodipodi:rx="12.727922"
       sodipodi:ry="2.6516504"
       d="m 32.880466,53.812817 a 12.727922,2.6516504 0 1 1 -25.4558444,0 12.727922,2.6516504 0 1 1 25.4558444,0 z"
       transform="matrix(2,0,0,2,-0.06528716,5.429004)"
       inkscape:transform-center-x="-38.848152"
       inkscape:transform-center-y="-5.3033058" />
    <path
       style="fill:#ffffff;stroke:#1a1a1a;stroke-width:1.99999988;display:inline"
       d="m 42.880314,77.994227 -0.657118,6.294191 -6.279634,-0.655598 c 0.945973,0.317945 1.949745,0.544397 2.99248,0.653259 2.779394,0.290171 5.110171,29.957961 8.052538,28.734671 2.389409,-0.99326 5.323972,-27.334332 7.049299,-33.861665 L 42.880314,77.994227 z"
       id="path5170-7"
       inkscape:connector-curvature="0"
       inkscape:transform-center-x="1.9009285"
       inkscape:transform-center-y="15.667955" />
    <path
       style="fill:#ffffff;stroke:#1a1a1a;stroke-width:1.99999988;display:inline"
       d="m 55.596283,71.195224 c 0,9.0416 -4.067154,13.9068 -9.609908,13.9068 -2.224104,0 -6.545194,29.276596 -8.773228,27.754396 -1.98848,-1.3584 -7.693342,-28.865596 -9.057926,-31.369596 -0.916846,-1.6822 -1.456646,-8.116 -1.456646,-10.2916 0,-2.6266 0.615366,-6.5828 1.709092,-10.347 1.236008,-4.254 3.082926,-8.2624 5.343026,-9.829 2.624588,-1.8194 5.80637,-2.8844 9.235682,-2.8844 3.590464,0 6.909584,1.1676 9.601964,3.1458 4.053076,2.978 3.007944,14.482 3.007944,19.9146 z"
       id="path5167-0"
       inkscape:connector-curvature="0"
       sodipodi:nodetypes="ssssssssss"
       inkscape:transform-center-x="-39.816277"
       inkscape:transform-center-y="-37.833636" />
    <path
       id="path5180-9"
       d="m 37.346954,54.39888 c -8.137078,6.167755 -3.515893,35.926433 2.045567,36.172369 6.441249,0.396234 4.131274,-27.353584 4.691674,-34.245562 -0.564115,-1.896484 1.67828,-7.611114 -6.737241,-1.926807 z"
       style="fill:#ffffff;stroke:#1a1a1a;stroke-width:1.99999988;display:inline"
       inkscape:connector-curvature="0"
       sodipodi:nodetypes="cccc"
       inkscape:transform-center-x="3.6259963"
       inkscape:transform-center-y="18.900055" />
    <path
       sodipodi:type="arc"
       style="fill:#ffffff;fill-opacity:1;stroke:none;display:inline"
       id="path5188-3"
       sodipodi:cx="19"
       sodipodi:cy="29.375"
       sodipodi:rx="3.5"
       sodipodi:ry="3.5"
       d="m 22.5,29.375 a 3.5,3.5 0 1 1 -7,0 3.5,3.5 0 1 1 7,0 z"
       transform="matrix(2.1582766,0,0,1.9695598,2.3041378,-0.769576)"
       inkscape:transform-center-x="-36.919744"
       inkscape:transform-center-y="-61.5217" />
    <path
       sodipodi:type="arc"
       style="fill:#ffffff;stroke:#1a1a1a;stroke-width:1.10740411;display:inline"
       id="path5165-1"
       sodipodi:cx="21.5"
       sodipodi:cy="13.5"
       sodipodi:rx="11.625"
       sodipodi:ry="11.625"
       d="m 33.125,13.5 a 11.625,11.625 0 1 1 -23.25,0 11.625,11.625 0 1 1 23.25,0 z"
       transform="matrix(1.8039326,0,0,1.8081205,4.8258916,5.643824)"
       inkscape:transform-center-x="-42.218793"
       inkscape:transform-center-y="-88.304492" />
    <path
       sodipodi:type="arc"
       style="fill:#ffffff;fill-opacity:1;stroke:#1a1a1a;stroke-width:1.10740411;stroke-linecap:round;stroke-linejoin:round;stroke-miterlimit:4;stroke-opacity:1;stroke-dasharray:none;display:inline"
       id="path5184-6"
       sodipodi:cx="22.75"
       sodipodi:cy="15.875"
       sodipodi:rx="2.25"
       sodipodi:ry="2.25"
       d="m 25,15.875 a 2.25,2.25 0 1 1 -4.5,0 2.25,2.25 0 1 1 4.5,0 z"
       transform="matrix(1.8039326,0,0,1.8081205,13.20335,5.643824)"
       inkscape:transform-center-x="-45.601167"
       inkscape:transform-center-y="-84.010206" />
  </g>
  <g
     style="display:inline"
     transform="translate(0,-932.36218)"
     id="g3168"
     inkscape:groupmode="layer"
     inkscape:label="action1"
     sodipodi:insensitive="true">
    <g
       id="g4058"
       transform="translate(-0.37499981,-2.25)">
      <g
         transform="translate(0.2591213,0)"
         id="g3968">
        <path
           inkscape:transform-center-y="16.010835"
           inkscape:transform-center-x="5.9651331"
           sodipodi:nodetypes="cccc"
           inkscape:connector-curvature="0"
           style="fill:#ffffff;stroke:#1a1a1a;stroke-width:1.99999988"
           d="m 30.271408,984.02833 c -9.496043,3.75212 -13.048455,33.65717 -7.758041,35.38977 2.540284,-0.4854 10.723499,-25.68196 13.728862,-31.72203 -0.03329,-1.97833 3.663388,-6.87934 -5.970821,-3.66774 z"
           id="path3178" />
      </g>
      <g
         transform="translate(-3.4908787,0)"
         id="g3965">
        <path
           id="path3188"
           d="m 55.889133,983.97375 c 9.230836,4.36405 10.823374,34.43725 5.431137,35.82075 -2.503178,-0.6502 -9.024025,-26.32724 -11.628662,-32.55063 0.162369,-1.97193 -3.206469,-7.10381 6.197525,-3.27012 z"
           style="fill:#ffffff;stroke:#1a1a1a;stroke-width:1.99999988"
           inkscape:connector-curvature="0"
           sodipodi:nodetypes="cccc"
           inkscape:transform-center-x="-6.149672"
           inkscape:transform-center-y="17.646574" />
      </g>
    </g>
    <path
       inkscape:transform-center-y="-88.304492"
       inkscape:transform-center-x="-42.218793"
       transform="matrix(1.8039326,0,0,1.8081205,2.4552502,939.006)"
       d="m 33.125,13.5 a 11.625,11.625 0 1 1 -23.25,0 11.625,11.625 0 1 1 23.25,0 z"
       sodipodi:ry="11.625"
       sodipodi:rx="11.625"
       sodipodi:cy="13.5"
       sodipodi:cx="21.5"
       id="path3182"
       style="fill:#ffffff;stroke:#1a1a1a;stroke-width:1.10740411"
       sodipodi:type="arc" />
    <path
       inkscape:transform-center-y="-5.3033058"
       inkscape:transform-center-x="-38.848152"
       transform="matrix(2,0,0,2,-0.06528698,937.79118)"
       d="m 32.880466,53.812817 a 12.727922,2.6516504 0 1 1 -25.4558444,0 12.727922,2.6516504 0 1 1 25.4558444,0 z"
       sodipodi:ry="2.6516504"
       sodipodi:rx="12.727922"
       sodipodi:cy="53.812817"
       sodipodi:cx="20.152544"
       id="path3170"
       style="opacity:0.4;fill:#808080;fill-opacity:1;stroke:none"
       sodipodi:type="arc" />
    <path
       style="fill:#ffffff;stroke:#1a1a1a;stroke-width:1.99999988"
       d="m 42.037608,977.73718 c -3.429312,0 -6.625412,3.83685 -9.25,5.65625 -2.2601,1.5666 -4.107742,5.5585 -5.34375,9.8125 -1.093726,3.7642 -1.71875,7.71717 -1.71875,10.34377 0,2.1756 0.551904,10.1407 1.46875,11.8229 1.364584,2.504 1.31405,28.4749 3.8125,29.8333 2.285425,1.2427 6.292352,-18.0326 9.21875,-25.1562 2.919381,7.11 6.963138,26.3997 9.25,25.1562 2.240932,-1.2183 2.468774,-20.9586 3.46875,-28.0833 1.070812,-2.0476 1.6875,-10.5941 1.6875,-13.5729 0,-5.43262 1.053076,-16.92827 -3,-19.90627 -2.69238,-1.9782 -6.003286,-5.90625 -9.59375,-5.90625 z"
       id="path3174"
       inkscape:connector-curvature="0"
       sodipodi:nodetypes="scsscccccsss" />
    <path
       style="fill:none;stroke:#1a1a1a;stroke-width:2;stroke-linecap:round;stroke-miterlimit:4;stroke-dasharray:none"
       d="m 34.582947,1016.998 c 1.601476,1.5543 9.852557,1.4182 11.313708,0"
       id="path3195"
       inkscape:connector-curvature="0"
       sodipodi:nodetypes="cc" />
    <path
       sodipodi:type="arc"
       style="fill:#ffffff;fill-opacity:1;stroke:none"
       id="path4064"
       sodipodi:cx="40.25"
       sodipodi:cy="43.5"
       sodipodi:rx="5.75"
       sodipodi:ry="5.75"
       d="m 46,43.5 a 5.75,5.75 0 1 1 -11.5,0 5.75,5.75 0 1 1 11.5,0 z"
       transform="matrix(1.8695652,0,0,1,-33.510199,932.36218)" />
  </g>
  <g
     inkscape:label="action2"
     inkscape:groupmode="layer"
     id="g4066"
     transform="translate(0,-932.36218)"
     style="display:inline"
     sodipodi:insensitive="true">
    <g
       transform="translate(-0.37499981,-2.25)"
       id="g4068">
      <path
         style="fill:#ffffff;stroke:#1a1a1a;stroke-width:1.99999988"
         d="m 35.15625,48.34375 c -1.008767,-0.03875 -2.591448,0.2596 -5,1.0625 -5.46796,2.160526 -8.96442,12.993535 -9.9375,22.125 -0.829213,7.201839 3.413946,4.918193 7.65625,2.59375 3.096457,-7.803216 6.520728,-17.555823 8.25,-21.03125 -0.02497,-1.483748 2.057552,-4.63375 -0.96875,-4.75 z"
         transform="translate(0.37499981,934.61218)"
         id="path4072"
         inkscape:connector-curvature="0"
         sodipodi:nodetypes="sccccs" />
      <path
         style="fill:#ffffff;stroke:#1a1a1a;stroke-width:1.99999988"
         d="m 47.125,47.96875 c -3.027435,-0.08156 -1.190723,3.177302 -1.3125,4.65625 1.45344,3.472778 4.14249,12.953442 6.65625,20.8125 6.640514,5.094031 7.76203,1.670761 7.90625,-3.25 C 59.72216,61.440405 56.988241,51.71851 52.03125,49.375 49.680251,48.416578 48.134145,47.995937 47.125,47.96875 z"
         transform="translate(0.37499981,934.61218)"
         id="path4076"
         inkscape:connector-curvature="0"
         sodipodi:nodetypes="sccccs"
         inkscape:transform-center-x="-5"
         inkscape:transform-center-y="10.75" />
    </g>
    <path
       sodipodi:type="arc"
       style="fill:#ffffff;stroke:#1a1a1a;stroke-width:1.10740411"
       id="path4078"
       sodipodi:cx="21.5"
       sodipodi:cy="13.5"
       sodipodi:rx="11.625"
       sodipodi:ry="11.625"
       d="m 33.125,13.5 a 11.625,11.625 0 1 1 -23.25,0 11.625,11.625 0 1 1 23.25,0 z"
       transform="matrix(1.8039326,0,0,1.8081205,2.4552502,939.006)"
       inkscape:transform-center-x="-42.218793"
       inkscape:transform-center-y="-88.304492" />
    <path
       sodipodi:type="arc"
       style="opacity:0.4;fill:#808080;fill-opacity:1;stroke:none"
       id="path4080"
       sodipodi:cx="20.152544"
       sodipodi:cy="53.812817"
       sodipodi:rx="12.727922"
       sodipodi:ry="2.6516504"
       d="m 32.880466,53.812817 a 12.727922,2.6516504 0 1 1 -25.4558444,0 12.727922,2.6516504 0 1 1 25.4558444,0 z"
       transform="matrix(2,0,0,2,-0.06528698,937.79118)"
       inkscape:transform-center-x="-38.848152"
       inkscape:transform-center-y="-5.3033058" />
    <path
       sodipodi:nodetypes="scsscccccsss"
       inkscape:connector-curvature="0"
       id="path4082"
       d="m 42.037608,977.73718 c -3.429312,0 -6.625412,3.83685 -9.25,5.65625 -2.2601,1.5666 -4.107742,5.5585 -5.34375,9.8125 -1.093726,3.7642 -1.71875,7.71717 -1.71875,10.34377 0,2.1756 0.551904,10.1407 1.46875,11.8229 1.364584,2.504 1.31405,28.4749 3.8125,29.8333 2.285425,1.2427 6.292352,-18.0326 9.21875,-25.1562 2.919381,7.11 6.963138,26.3997 9.25,25.1562 2.240932,-1.2183 2.468774,-20.9586 3.46875,-28.0833 1.070812,-2.0476 1.6875,-10.5941 1.6875,-13.5729 0,-5.43262 1.053076,-16.92827 -3,-19.90627 -2.69238,-1.9782 -6.003286,-5.90625 -9.59375,-5.90625 z"
       style="fill:#ffffff;stroke:#1a1a1a;stroke-width:1.99999988" />
    <path
       sodipodi:nodetypes="cc"
       inkscape:connector-curvature="0"
       id="path4084"
       d="m 34.582947,1016.998 c 1.601476,1.5543 9.852557,1.4182 11.313708,0"
       style="fill:none;stroke:#1a1a1a;stroke-width:2;stroke-linecap:round;stroke-miterlimit:4;stroke-dasharray:none" />
    <path
       transform="matrix(1.8695652,0,0,1,-33.510199,932.36218)"
       d="m 46,43.5 a 5.75,5.75 0 1 1 -11.5,0 5.75,5.75 0 1 1 11.5,0 z"
       sodipodi:ry="5.75"
       sodipodi:rx="5.75"
       sodipodi:cy="43.5"
       sodipodi:cx="40.25"
       id="path4086"
       style="fill:#ffffff;fill-opacity:1;stroke:none"
       sodipodi:type="arc" />
  </g>
  <g
     style="display:inline"
     transform="translate(0,-932.36218)"
     id="g3124"
     inkscape:groupmode="layer"
     inkscape:label="action3"
     sodipodi:insensitive="true">
    <path
       style="fill:#ffffff;stroke:#1a1a1a;stroke-width:1.99999988"
       d="m 37.376799,978.84998 c -0.948791,-0.34483 -2.546981,-0.54395 -5.085664,-0.51471 -5.866507,0.38804 -12.503307,9.63639 -16.21772,18.0348 -2.988334,6.60493 1.749451,5.72563 6.498846,4.80743 5.330921,-6.48541 11.569136,-14.72698 14.276883,-17.50854 0.429205,-1.42054 3.373984,-3.78436 0.527655,-4.81898 z"
       id="path3128"
       inkscape:connector-curvature="0"
       sodipodi:nodetypes="sccccs"
       inkscape:transform-center-x="8.3357529"
       inkscape:transform-center-y="10.83721" />
    <path
       style="fill:#ffffff;stroke:#1a1a1a;stroke-width:1.99999988"
       d="m 46.331216,978.49758 c -2.95016,0.68452 -0.350954,3.37489 -0.09582,4.83675 2.282261,2.99399 7.275321,11.49006 11.689811,18.46117 7.710532,3.2547 7.932477,-0.3408 6.831085,-5.13883 -2.837673,-8.29975 -7.934988,-17.01794 -13.322767,-18.0356 -2.516713,-0.33455 -4.118927,-0.35168 -5.102311,-0.12349 z"
       id="path3130"
       inkscape:connector-curvature="0"
       sodipodi:nodetypes="sccccs"
       inkscape:transform-center-x="-7.2135322"
       inkscape:transform-center-y="9.2474314" />
    <path
       inkscape:transform-center-y="-88.304492"
       inkscape:transform-center-x="-42.218793"
       transform="matrix(1.8039326,0,0,1.8081205,2.4552502,937.256)"
       d="m 33.125,13.5 a 11.625,11.625 0 1 1 -23.25,0 11.625,11.625 0 1 1 23.25,0 z"
       sodipodi:ry="11.625"
       sodipodi:rx="11.625"
       sodipodi:cy="13.5"
       sodipodi:cx="21.5"
       id="path3132"
       style="fill:#ffffff;stroke:#1a1a1a;stroke-width:1.10740411"
       sodipodi:type="arc" />
    <path
       inkscape:transform-center-y="-5.3033058"
       inkscape:transform-center-x="-38.848152"
       transform="matrix(2,0,0,2,-0.06528698,937.79118)"
       d="m 32.880466,53.812817 a 12.727922,2.6516504 0 1 1 -25.4558444,0 12.727922,2.6516504 0 1 1 25.4558444,0 z"
       sodipodi:ry="2.6516504"
       sodipodi:rx="12.727922"
       sodipodi:cy="53.812817"
       sodipodi:cx="20.152544"
       id="path3134"
       style="opacity:0.4;fill:#808080;fill-opacity:1;stroke:none"
       sodipodi:type="arc" />
    <path
       style="fill:#ffffff;stroke:#1a1a1a;stroke-width:1.99999988"
       d="m 42.037608,977.73718 c -3.429312,0 -6.625412,3.83685 -9.25,5.65625 -2.2601,1.5666 -4.107742,5.5585 -5.34375,9.8125 -1.093726,3.7642 -1.71875,7.71717 -1.71875,10.34377 0,2.1756 0.551904,10.1407 1.46875,11.8229 1.364584,2.504 1.31405,28.4749 3.8125,29.8333 2.285425,1.2427 6.292352,-18.0326 9.21875,-25.1562 2.919381,7.11 6.963138,26.3997 9.25,25.1562 2.240932,-1.2183 2.468774,-20.9586 3.46875,-28.0833 1.070812,-2.0476 1.6875,-10.5941 1.6875,-13.5729 0,-5.43262 1.053076,-16.92827 -3,-19.90627 -2.69238,-1.9782 -6.003286,-5.90625 -9.59375,-5.90625 z"
       id="path3136"
       inkscape:connector-curvature="0"
       sodipodi:nodetypes="scsscccccsss" />
    <path
       style="fill:none;stroke:#1a1a1a;stroke-width:2;stroke-linecap:round;stroke-miterlimit:4;stroke-dasharray:none"
       d="m 34.582947,1016.998 c 1.601476,1.5543 9.852557,1.4182 11.313708,0"
       id="path3138"
       inkscape:connector-curvature="0"
       sodipodi:nodetypes="cc" />
    <path
       sodipodi:type="arc"
       style="fill:#ffffff;fill-opacity:1;stroke:none"
       id="path3140"
       sodipodi:cx="40.25"
       sodipodi:cy="43.5"
       sodipodi:rx="5.75"
       sodipodi:ry="5.75"
       d="m 46,43.5 a 5.75,5.75 0 1 1 -11.5,0 5.75,5.75 0 1 1 11.5,0 z"
       transform="matrix(1.8695652,0,0,1,-33.510199,932.36218)" />
  </g>
</svg>
